:SAMPLES-PER-SECOND 30
:FULLY-SPECIFIED
:DEGREES
1
root  13.0521 39.9195 3.9885 -96.7821 -85.2327 107.757
RightUpLeg  -17.4383 -8.86023 -5.73857
RightLeg  10.0342 7.69966 0.894687
RightFoot  -4.04787 -0.0732276 0.559915
RightToes  4.01633e-009 0 -3.6325e-017
Spine  -14.9955 1.32736 -4.8553
Spine1  7.56277 1.42668 3.13213
HEad  -1.76907 -2.01026 -0.869377
LeftShoulder1  0.188572 1.20791 0.274674
LeftArm  -20.7146 4.21918 -13.7443
LeftForeArm  -2.21387 1.45895 2.39267
LeftHand  -0.0777836 2.4945 2.70177
RightShoulder  0.0823354 -2.1507 -2.66466
RightArm  -6.68835 -3.11181 9.03253
RightForeArm  -4.21979 -0.325658 -2.09505
RightHand  -0.123843 3.70295 -1.84074
LeftUpLeg  -12.0143 1.3476 -2.66766
LeftLeg  1.28524 1.76092 0.193977
LeftFoot  -0.393051 -0.154024 1.67143
LeftToes  -1.95724e-009 9.62483e-011 3.51777e-011
2
root  13.0399 39.9225 3.9812 -97.18 -85.2385 108.192
RightUpLeg  -17.4318 -8.77723 -5.68462
RightLeg  9.95709 7.6052 0.822634
RightFoot  -4.02899 -0.0745934 0.581113
RightToes  4.01633e-009 0 -3.6325e-017
Spine  -14.9403 1.32028 -4.84675
Spine1  7.47558 1.44556 3.01814
HEad  -1.65909 -1.83815 -0.879486
LeftShoulder1  0.17811 1.32744 0.298013
LeftArm  -20.8122 4.14401 -13.82
LeftForeArm  -2.516 1.44663 2.42403
LeftHand  -0.0755513 3.07459 3.06559
RightShoulder  0.0823134 -2.13003 -2.52088
RightArm  -6.7601 -3.00751 8.96282
RightForeArm  -3.92027 -0.402037 -2.13264
RightHand  -0.0987787 3.8967 -1.49916
LeftUpLeg  -11.9937 1.39623 -2.63189
LeftLeg  1.21636 1.76483 0.165
LeftFoot  -0.374017 -0.151168 1.62703
LeftToes  -1.95724e-009 9.62483e-011 3.51777e-011
3
root  13.0219 39.928 3.97396 -97.5703 -85.2603 108.616
RightUpLeg  -17.4103 -8.72766 -5.6282
RightLeg  9.88972 7.5681 0.786195
RightFoot  -3.95661 -0.0659436 0.446854
RightToes  4.01633e-009 0 -3.6325e-017
Spine  -14.9637 1.2935 -5.00016
Spine1  7.47456 1.39756 3.20332
HEad  -1.45017 -2.13744 -1.1827
LeftShoulder1  0.181239 1.34947 0.142453
LeftArm  -20.6142 4.17479 -13.7061
LeftForeArm  -1.70328 1.39899 2.33222
LeftHand  -0.0529576 2.48229 1.61918
RightShoulder  0.0823242 -2.12686 -2.5816
RightArm  -6.79112 -2.86143 8.99945
RightForeArm  -4.01619 -0.5311 -2.12691
RightHand  -0.103495 3.74181 -1.57446
LeftUpLeg  -11.96 1.43075 -2.58595
LeftLeg  1.13722 1.72696 0.162308
LeftFoot  -0.337329 -0.150581 1.6179
LeftToes  -1.95724e-009 9.62483e-011 3.51777e-011
4
root  13.0122 39.9288 3.96016 -98.4879 -85.2721 109.541
RightUpLeg  -17.3939 -8.60174 -5.56078
RightLeg  9.8537 7.51994 0.706949
RightFoot  -3.98906 -0.0733892 0.562424
RightToes  4.01633e-009 0 -3.6325e-017
Spine  -14.8737 1.31629 -5.10464
Spine1  7.41659 1.41631 3.27754
HEad  -1.49258 -2.12438 -1.29222
LeftShoulder1  0.179906 1.42702 0.160706
LeftArm  -20.5629 4.07956 -13.8017
LeftForeArm  -1.78948 1.43893 2.30048
LeftHand  -0.0557514 2.03342 1.57031
RightShoulder  0.0823054 -2.17083 -2.50796
RightArm  -6.67696 -2.74986 8.87424
RightForeArm  -3.92838 -0.542365 -2.07729
RightHand  -0.100656 3.84481 -1.52776
LeftUpLeg  -11.9493 1.52493 -2.51371
LeftLeg  1.1445 1.69947 0.116747
LeftFoot  -0.384145 -0.147037 1.5628
LeftToes  -1.95724e-009 9.62483e-011 3.51777e-011
5
root  13.0076 39.928 3.96174 -98.2555 -85.2891 109.313
RightUpLeg  -17.3942 -8.61812 -5.56274
RightLeg  9.8631 7.55776 0.732934
RightFoot  -3.98921 -0.0733431 0.561708
RightToes  4.01633e-009 0 -3.6325e-017
Spine  -14.6661 1.33645 -5.00595
Spine1  7.17755 1.47163 3.05198
HEad  -1.51511 -2.16123 -1.16571
LeftShoulder1  0.177972 1.33174 0.320203
LeftArm  -20.5101 4.18764 -13.9349
LeftForeArm  -1.83376 1.39322 2.26623
LeftHand  -0.0733146 1.82492 2.10978
RightShoulder  0.081314 -2.23549 -2.40353
RightArm  -6.74454 -2.80382 8.82695
RightForeArm  -3.95963 -0.467823 -2.10396
RightHand  -0.108624 3.84542 -1.62806
LeftUpLeg  -11.9521 1.52848 -2.50887
LeftLeg  1.15707 1.66985 0.118101
LeftFoot  -0.405443 -0.149667 1.60369
LeftToes  -1.95724e-009 9.62483e-011 3.51777e-011
6
root  12.9983 39.9286 3.96132 -98.3225 -85.3071 109.391
RightUpLeg  -17.4368 -8.64814 -5.54277
RightLeg  9.95663 7.53532 0.776561
RightFoot  -4.00175 -0.0640714 0.417792
RightToes  4.01633e-009 0 -3.6325e-017
Spine  -14.4857 1.34375 -4.92308
Spine1  6.93888 1.50384 2.88099
HEad  -1.39509 -2.28054 -1.23774
LeftShoulder1  0.178045 1.26511 0.545699
LeftArm  -20.6773 4.23921 -14.1577
LeftForeArm  -1.65982 1.51372 2.39965
LeftHand  -0.0753079 1.62564 2.08331
RightShoulder  0.07744 -2.2961 -2.25078
RightArm  -6.74318 -2.81634 8.72803
RightForeArm  -3.95163 -0.323035 -2.08904
RightHand  -0.107025 3.53136 -1.64365
LeftUpLeg  -11.9326 1.55806 -2.48087
LeftLeg  1.11723 1.66689 0.0889295
LeftFoot  -0.406531 -0.152303 1.64467
LeftToes  -1.95724e-009 9.62483e-011 3.51777e-011
7
root  12.989 39.9295 3.95672 -97.7749 -85.3518 108.877
RightUpLeg  -17.4124 -8.63509 -5.52498
RightLeg  9.89217 7.46934 0.786426
RightFoot  -3.99572 -0.0657872 0.444426
RightToes  4.01633e-009 0 -3.6325e-017
Spine  -14.3336 1.31515 -4.81712
Spine1  6.69438 1.50034 2.68824
HEad  -1.25269 -2.28853 -1.20267
LeftShoulder1  0.180789 1.1977 0.62588
LeftArm  -20.8726 4.33164 -14.2688
LeftForeArm  -1.40975 1.4568 2.51883
LeftHand  -0.0653242 2.02158 1.92602
RightShoulder  0.0726084 -2.29825 -2.04327
RightArm  -6.53331 -2.88452 8.48748
RightForeArm  -4.09936 -0.103491 -1.99561
RightHand  -0.11796 3.31133 -1.81422
LeftUpLeg  -11.9776 1.62782 -2.42433
LeftLeg  1.15215 1.54839 0.0324504
LeftFoot  -0.427705 -0.150913 1.62307
LeftToes  -1.95724e-009 9.62483e-011 3.51777e-011
8
root  12.985 39.9223 3.94582 -98.8073 -85.3885 109.908
RightUpLeg  -17.4188 -8.50188 -5.43251
RightLeg  9.901 7.43612 0.733631
RightFoot  -4.10287 -0.0718442 0.538442
RightToes  4.01633e-009 0 -3.6325e-017
Spine  -14.2951 1.35315 -4.748
Spine1  6.75778 1.53352 2.65578
HEad  -1.3285 -2.26192 -1.17674
LeftShoulder1  0.18537 1.17706 0.558402
LeftArm  -20.9958 4.42246 -14.3909
LeftForeArm  -1.55739 1.1086 2.53155
LeftHand  -0.0633474 2.56668 2.07544
RightShoulder  0.0686807 -2.41567 -2.02
RightArm  -6.65028 -2.939 8.52982
RightForeArm  -4.08017 0.119478 -2.01825
RightHand  -0.1163 3.40013 -1.78247
LeftUpLeg  -12.0662 1.75989 -2.32906
LeftLeg  1.37288 1.49909 -0.0235321
LeftFoot  -0.584062 -0.154097 1.67412
LeftToes  -1.95724e-009 9.62483e-011 3.51777e-011
9
root  12.9899 39.9133 3.93318 -99.3916 -85.4323 110.475
RightUpLeg  -17.4849 -8.50997 -5.37114
RightLeg  10.079 7.45867 0.813793
RightFoot  -4.26445 -0.0639907 0.416538
RightToes  4.01633e-009 0 -3.6325e-017
Spine  -14.0142 1.35774 -4.68719
Spine1  6.57887 1.48332 2.80031
HEad  -1.43655 -2.1696 -1.24471
LeftShoulder1  0.186167 1.23433 0.280514
LeftArm  -21.2667 4.65183 -14.5729
LeftForeArm  -0.960141 0.494849 2.61523
LeftHand  -0.0576755 2.82412 1.96487
RightShoulder  0.0690244 -2.46717 -2.21836
RightArm  -7.03692 -3.2708 8.90465
RightForeArm  -3.96759 0.515547 -2.15232
RightHand  -0.121493 3.77823 -1.79682
LeftUpLeg  -12.1821 1.84632 -2.23132
LeftLeg  1.65361 1.46789 -0.0703298
LeftFoot  -0.780255 -0.151484 1.6893
LeftToes  -1.95724e-009 9.62483e-011 3.51777e-011
10
root  12.9936 39.896 3.91528 -100.316 -85.4426 111.321
RightUpLeg  -17.5729 -8.50652 -5.33768
RightLeg  10.4431 7.4951 0.917799
RightFoot  -4.57271 -0.0577112 0.319061
RightToes  4.01633e-009 0 -3.6325e-017
Spine  -13.4505 1.28541 -4.58063
Spine1  6.10023 1.38618 2.75744
HEad  -1.23029 -1.79802 -1.29626
LeftShoulder1  0.174427 1.41689 0.111076
LeftArm  -21.5093 5.32281 -15.0529
LeftForeArm  -0.201945 -0.751179 2.58413
LeftHand  -0.0726018 3.0129 2.85116
RightShoulder  0.0774261 -2.40109 -2.07797
RightArm  -7.76561 -3.90899 9.49981
RightForeArm  -4.38333 1.58193 -2.32245
RightHand  -0.159627 3.4601 -2.35377
LeftUpLeg  -12.2882 1.93133 -2.14652
LeftLeg  2.07523 1.47272 -0.102818
LeftFoot  -1.15376 -0.134151 1.58422
LeftToes  -1.95724e-009 9.62483e-011 3.51777e-011
